<svg width="18" height="18" viewBox="0 0 18 18" fill="none" xmlns="http://www.w3.org/2000/svg">
<path d="M11.309 14.1232H2.29527C1.56679 14.1232 1.125 13.7498 1.125 13.2011C1.125 12.4383 1.91533 11.7523 2.58198 11.0738C3.10114 10.5478 3.23308 9.46531 3.29493 8.58836C3.34916 5.5848 4.13981 3.64064 6.20127 2.90878C6.46483 1.918 7.29384 1.125 8.44129 1.125C9.58049 1.125 10.4174 1.918 10.6734 2.90878C12.7428 3.64064 13.5255 5.5848 13.5874 8.5887C13.6416 9.46531 13.7811 10.5478 14.2927 11.0738C14.967 11.7523 15.75 12.4383 15.75 13.2007C15.75 13.7498 15.3158 14.1232 14.5794 14.1232H11.309ZM11.309 14.1232C11.2468 15.5869 10.0765 16.875 8.44129 16.875C6.79813 16.875 5.62788 15.5869 5.5657 14.1232" stroke="#111647" stroke-width="1.4"/>
</svg>
