<svg width="37" height="20" viewBox="0 0 37 20" fill="none" xmlns="http://www.w3.org/2000/svg">
<rect width="37" height="20" rx="2" fill="#F44445"/>
<path d="M10.488 12.644V13.808C9.372 14.216 8.112 14.564 6.696 14.828L6.528 13.628C8.04 13.388 9.36 13.052 10.488 12.644ZM8.34 4.1L9.396 4.508C8.844 5.924 8.292 7.064 7.716 7.952C8.124 7.904 8.52 7.844 8.916 7.772C9.132 7.304 9.372 6.8 9.612 6.272L10.608 6.644C9.648 8.636 8.856 10.088 8.208 10.988C8.796 10.832 9.384 10.64 9.984 10.4V11.42C8.892 11.828 7.86 12.116 6.9 12.26L6.6 11.228C6.792 11.144 6.96 11.036 7.104 10.904C7.452 10.496 7.884 9.8 8.412 8.804C7.848 8.888 7.272 8.972 6.672 9.068L6.396 8.036C6.576 7.964 6.732 7.832 6.864 7.616C7.428 6.56 7.92 5.396 8.34 4.1ZM12.948 10.568C14.172 10.916 15.288 11.336 16.308 11.828L15.744 12.692C14.64 12.164 13.512 11.756 12.348 11.444L12.948 10.568ZM11.496 12.488C13.416 12.992 15.168 13.592 16.752 14.312L16.152 15.26C14.436 14.492 12.672 13.88 10.848 13.436L11.496 12.488ZM12.504 4.112L13.656 4.256C13.56 4.592 13.464 4.916 13.344 5.216H16.644V6.14C16.164 7.076 15.588 7.904 14.916 8.6C15.732 9.14 16.644 9.608 17.64 10.016L17.04 11.048C15.96 10.568 14.988 10.004 14.112 9.344C13.14 10.148 12.012 10.772 10.728 11.204L10.164 10.196C11.316 9.836 12.348 9.32 13.236 8.624C12.804 8.24 12.408 7.856 12.048 7.448C11.772 7.772 11.472 8.084 11.16 8.372L10.44 7.436C11.448 6.524 12.144 5.42 12.504 4.112ZM14.016 7.94C14.508 7.448 14.952 6.908 15.336 6.308H12.828C12.756 6.416 12.696 6.524 12.636 6.632C13.044 7.1 13.512 7.532 14.016 7.94ZM24.452 4.244H25.604V8.024H29.24V9.128H25.604V13.676H29.864V14.792H19.136V13.676H21.08V6.344H22.232V13.676H24.452V4.244Z" fill="white"/>
</svg>
