<svg width="20" height="20" viewBox="0 0 20 20" fill="none" xmlns="http://www.w3.org/2000/svg">
<rect width="20" height="20" rx="3" fill="#FFEDED"/>
<path d="M4.611 4H15.141V4.91H10.994C10.786 5.196 10.552 5.482 10.318 5.742V10.045H9.382V6.639C8.16 7.653 6.561 8.55 4.585 9.343L4 8.576C6.782 7.549 8.758 6.327 9.928 4.91H4.611V4ZM14.166 10.5V15.258H13.217V14.647H6.509V15.258H5.56V10.5H14.166ZM6.509 13.737H13.217V11.41H6.509V13.737ZM11.683 6.067C13.243 6.951 14.543 7.848 15.596 8.745L14.92 9.434C13.984 8.576 12.697 7.653 11.059 6.665L11.683 6.067Z" fill="#F44545"/>
</svg>
