<svg width="92" height="20" viewBox="0 0 92 20" fill="none" xmlns="http://www.w3.org/2000/svg">
<circle cx="2" cy="10" r="2" fill="#027AFF"/>
<path d="M21.376 3.36C21.1413 3.97867 20.944 4.46933 20.784 4.832H25.36C26.2667 4.832 26.72 5.24267 26.72 6.064C26.72 6.192 26.7147 6.29333 26.704 6.368C26.5867 7.69067 26.4107 9.29067 26.176 11.168C25.9307 13.152 25.7173 14.736 25.536 15.92C25.4507 16.3573 25.2853 16.688 25.04 16.912C24.8053 17.136 24.4693 17.248 24.032 17.248C23.9573 17.248 23.8347 17.2373 23.664 17.216C22.6613 17.0667 21.6533 16.832 20.64 16.512L20.8 15.04C21.8133 15.3387 22.7413 15.5573 23.584 15.696C23.6373 15.7067 23.7013 15.712 23.776 15.712C23.872 15.712 23.9413 15.6853 23.984 15.632C24.0267 15.5787 24.0587 15.4667 24.08 15.296C24.208 14.5067 24.4 13.0507 24.656 10.928C24.8373 9.44533 25.0027 7.89333 25.152 6.272H20.128C19.776 6.98667 19.3867 7.73333 18.96 8.512H17.232C18.3093 6.66667 19.1413 4.94933 19.728 3.36H21.376ZM14.656 3.648L17.552 5.184L17.344 6.864L14.464 5.28L14.656 3.648ZM13.92 6.896L16.672 8.464L16.48 10.128L13.696 8.528L13.92 6.896ZM22.992 9.888L23.792 14.016H22.336L22.208 13.264C20.6613 13.4987 19.3867 13.6373 18.384 13.68C17.9253 13.6907 17.6213 13.536 17.472 13.216C17.4293 13.1307 17.408 13.024 17.408 12.896C17.408 12.672 17.488 12.4427 17.648 12.208C18.256 11.3013 18.7253 10.5653 19.056 10C19.5787 9.104 19.9947 8.32 20.304 7.648H21.92C20.96 9.48267 20.0747 11.0293 19.264 12.288C20.3307 12.2027 21.232 12.0907 21.968 11.952L21.616 9.888H22.992ZM16.72 11.28C16.144 13.0507 15.408 14.9973 14.512 17.12H12.832C13.4507 15.6907 14.2187 13.744 15.136 11.28H16.72ZM30.576 3.552L33.52 4.88L33.312 6.464L30.352 5.12L30.576 3.552ZM37.6 5.52L38.544 6.624L40.336 5.04H34.736L34.896 3.792H41.728C42.0053 3.792 42.2187 3.86133 42.368 4C42.528 4.128 42.608 4.29867 42.608 4.512C42.608 4.84267 42.4747 5.10933 42.208 5.312L40.432 6.72H41.488C41.9467 6.72 42.2933 6.83733 42.528 7.072C42.7627 7.296 42.8587 7.632 42.816 8.08L42.176 14.048C42.0693 14.7627 41.7067 15.12 41.088 15.12C40.896 15.12 40.6293 15.088 40.288 15.024C39.9467 14.96 39.664 14.88 39.44 14.784L39.52 13.472C39.8187 13.5893 40.1387 13.68 40.48 13.744L40.608 13.76C40.6507 13.76 40.6773 13.7493 40.688 13.728C40.7093 13.696 40.7307 13.632 40.752 13.536L40.848 12.592H38.576L38.352 14.784H36.96L37.184 12.592H35.024L34.768 14.848H33.296L34.112 8.016C34.1653 7.61067 34.3093 7.296 34.544 7.072C34.7893 6.83733 35.1147 6.72 35.52 6.72H36.96L35.92 5.52H37.6ZM29.376 9.008L29.552 7.568H31.872C32.16 7.568 32.3787 7.65867 32.528 7.84C32.688 8.02133 32.768 8.272 32.768 8.592C32.768 8.73067 32.7627 8.83733 32.752 8.912L32.176 13.52C32.176 13.488 32.1547 13.5893 32.112 13.824C32.4213 14.3253 32.8533 14.7413 33.408 15.072C34.0907 15.488 34.9493 15.696 35.984 15.696H42.832L42.368 17.168H35.408C34.5333 17.168 33.7493 16.9867 33.056 16.624C32.512 16.336 32.0373 15.952 31.632 15.472C31.3547 16.1547 30.9707 16.768 30.48 17.312L28.864 16.912C29.408 16.304 29.824 15.7227 30.112 15.168C30.4 14.6133 30.5867 14 30.672 13.328L31.168 9.008H29.376ZM37.68 7.936H35.584L35.44 9.104H37.568L37.68 7.936ZM41.2 9.104L41.328 7.936H39.072L38.96 9.104H41.2ZM37.44 10.288H35.296L35.168 11.408H37.312L37.44 10.288ZM41.088 10.288H38.832L38.704 11.408H40.96L41.088 10.288ZM46.512 3.6L49.616 5.024L49.392 6.576L46.304 5.152L46.512 3.6ZM54.176 17.152H52.608L53.232 12H49.36L49.536 10.512H53.424L54.032 5.504H50.4L50.576 4.048H58.976L58.8 5.504H55.584L54.976 10.512H59.008L58.848 12H54.8L54.176 17.152ZM50.576 6.384H51.968L52.544 9.728H51.088L50.576 6.384ZM57.44 9.744H55.968L57.056 6.4H58.512L57.44 9.744ZM47.984 14.128C47.9733 14.16 47.968 14.1973 47.968 14.24C47.968 14.304 47.9893 14.336 48.032 14.336C48.0853 14.336 48.1387 14.3147 48.192 14.272C48.8107 13.9307 49.36 13.5733 49.84 13.2L49.872 14.864C49.776 14.928 49.472 15.1147 48.96 15.424L48.496 15.68L48.112 15.904C47.8133 16.0747 47.5307 16.16 47.264 16.16C47.072 16.16 46.9173 16.1227 46.8 16.048C46.4693 15.8453 46.336 15.44 46.4 14.832L47.104 9.008H45.264L45.44 7.536H47.632C47.9627 7.536 48.2133 7.632 48.384 7.824C48.5653 8.00533 48.656 8.26133 48.656 8.592C48.656 8.70933 48.6507 8.8 48.64 8.864L47.984 14.128ZM63.952 8.944L63.36 9.568L62.736 10.192L60.992 9.696C62.0587 8.69333 63.04 7.62667 63.936 6.496C64.6293 5.632 65.3173 4.65067 66 3.552H67.936C66.7307 5.52533 65.4453 7.27467 64.08 8.8H71.36C71.8613 8.8 72.2133 8.944 72.416 9.232C72.6187 9.52 72.72 9.92533 72.72 10.448C72.72 10.864 72.6453 11.52 72.496 12.416L72.384 13.12C72.2453 14.0587 72.1013 14.96 71.952 15.824C71.8773 16.24 71.7227 16.5493 71.488 16.752C71.264 16.9653 70.9653 17.072 70.592 17.072C70.4213 17.072 70.288 17.0613 70.192 17.04C69.3493 16.8907 68.3307 16.6133 67.136 16.208L67.296 14.64C68.3307 14.992 69.248 15.232 70.048 15.36C70.0907 15.3707 70.1493 15.376 70.224 15.376C70.2987 15.376 70.3467 15.36 70.368 15.328C70.4 15.2853 70.4267 15.2 70.448 15.072C70.704 13.568 70.9013 11.968 71.04 10.272H67.376C67.0027 11.7653 66.4587 13.056 65.744 14.144C64.9867 15.296 64.0267 16.2827 62.864 17.104L61.296 16.368C62.544 15.4933 63.5253 14.5547 64.24 13.552C64.912 12.592 65.4027 11.4987 65.712 10.272H63.808L63.952 8.944ZM71.056 3.552C71.6213 4.52267 72.2293 5.46133 72.88 6.368C73.68 7.488 74.5013 8.55467 75.344 9.568L73.6 10.048C72.7787 8.992 72.0373 7.96267 71.376 6.96C70.8853 6.23467 70.176 5.09867 69.248 3.552H71.056Z" fill="#242F57"/>
</svg>
