<svg width="45" height="20" viewBox="0 0 45 20" fill="none" xmlns="http://www.w3.org/2000/svg">
<rect width="45" height="20" rx="2" fill="#768CA1"/>
<path d="M8.938 4.668H11.248V3.492H12.606V4.668H17.394V3.492H18.752V4.668H21.062V5.914H18.752V11.99H21.328V13.222H8.686V11.99H11.248V5.914H8.938V4.668ZM12.606 11.99H17.394V10.674H12.606V11.99ZM12.606 9.54H17.394V8.294H12.606V9.54ZM12.606 7.16H17.394V5.914H12.606V7.16ZM12.928 13.376L13.866 14.216C12.746 15.056 11.374 15.784 9.722 16.414L8.882 15.336C10.478 14.776 11.836 14.118 12.928 13.376ZM16.904 13.432C18.444 13.936 19.858 14.552 21.118 15.266L20.39 16.414C19.032 15.574 17.646 14.916 16.232 14.44L16.904 13.432ZM25.93 3.408L27.134 3.968C26.812 4.99 26.406 5.97 25.902 6.908V16.47H24.6V8.966C24.208 9.484 23.788 9.988 23.34 10.492L22.906 9.134C24.278 7.482 25.286 5.578 25.93 3.408ZM33.952 16.176H29.206C28.086 16.176 27.526 15.588 27.526 14.44V9.19L26.378 9.54V8.182L27.526 7.818V4.808H28.856V7.398L30.606 6.852V3.506H31.922V6.432L34.988 5.466C34.988 8.546 34.904 10.422 34.764 11.08C34.624 11.724 34.008 12.046 32.944 12.046H32.776L32.384 10.758C32.692 10.772 32.972 10.786 33.224 10.786C33.42 10.786 33.532 10.632 33.574 10.324C33.602 10.044 33.63 9.036 33.644 7.286L31.922 7.818V13.348H30.606V8.224L28.856 8.77V14.258C28.856 14.678 29.08 14.902 29.528 14.902H33.728C34.036 14.902 34.274 14.804 34.414 14.622C34.54 14.426 34.624 13.768 34.666 12.62L35.926 13.04C35.828 14.51 35.66 15.406 35.408 15.714C35.128 16.022 34.652 16.176 33.952 16.176Z" fill="white"/>
</svg>
